<mxfile host="app.diagrams.net" modified="2022-03-31T06:52:16.799Z" agent="5.0 (Windows NT 10.0; Win64; x64) AppleWebKit/537.36 (KHTML, like Gecko) Chrome/99.0.4844.51 Safari/537.36" etag="PxP4rHHuo6ewh3MKd26J" version="17.1.2" type="github">
  <diagram id="C5RBs43oDa-KdzZeNtuy" name="Page-1">
    <mxGraphModel dx="1022" dy="436" grid="1" gridSize="10" guides="1" tooltips="1" connect="1" arrows="1" fold="1" page="1" pageScale="1" pageWidth="827" pageHeight="1169" math="0" shadow="0">
      <root>
        <mxCell id="WIyWlLk6GJQsqaUBKTNV-0" />
        <mxCell id="WIyWlLk6GJQsqaUBKTNV-1" parent="WIyWlLk6GJQsqaUBKTNV-0" />
        <mxCell id="WIyWlLk6GJQsqaUBKTNV-5" value="" style="edgeStyle=orthogonalEdgeStyle;rounded=0;html=1;jettySize=auto;orthogonalLoop=1;fontSize=11;endArrow=block;endFill=0;endSize=8;strokeWidth=1;shadow=0;labelBackgroundColor=none;" parent="WIyWlLk6GJQsqaUBKTNV-1" source="WIyWlLk6GJQsqaUBKTNV-6" target="UK7usxM2ex3z4qg5tMJh-8" edge="1">
          <mxGeometry y="10" relative="1" as="geometry">
            <mxPoint as="offset" />
            <mxPoint x="380.0344827586207" y="189.99999999999994" as="targetPoint" />
          </mxGeometry>
        </mxCell>
        <mxCell id="UK7usxM2ex3z4qg5tMJh-6" value="" style="edgeStyle=orthogonalEdgeStyle;rounded=0;orthogonalLoop=1;jettySize=auto;html=1;" parent="WIyWlLk6GJQsqaUBKTNV-1" source="WIyWlLk6GJQsqaUBKTNV-6" target="UK7usxM2ex3z4qg5tMJh-2" edge="1">
          <mxGeometry relative="1" as="geometry" />
        </mxCell>
        <mxCell id="WIyWlLk6GJQsqaUBKTNV-6" value="" style="rhombus;whiteSpace=wrap;html=1;shadow=0;fontFamily=Helvetica;fontSize=12;align=center;strokeWidth=1;spacing=6;spacingTop=-4;" parent="WIyWlLk6GJQsqaUBKTNV-1" vertex="1">
          <mxGeometry x="170" y="40" width="70" height="60" as="geometry" />
        </mxCell>
        <mxCell id="UK7usxM2ex3z4qg5tMJh-7" value="" style="edgeStyle=orthogonalEdgeStyle;rounded=0;orthogonalLoop=1;jettySize=auto;html=1;" parent="WIyWlLk6GJQsqaUBKTNV-1" source="UK7usxM2ex3z4qg5tMJh-0" edge="1">
          <mxGeometry relative="1" as="geometry">
            <mxPoint x="170" y="70" as="targetPoint" />
          </mxGeometry>
        </mxCell>
        <mxCell id="UK7usxM2ex3z4qg5tMJh-0" value="&lt;pre style=&quot;font-size: 12px ; background-color: rgb(255 , 255 , 255) ; font-family: &amp;#34;jetbrains mono&amp;#34; , monospace&quot;&gt;attack&lt;/pre&gt;" style="html=1;shape=mxgraph.infographic.ribbonSimple;notch1=20;notch2=0;align=center;verticalAlign=middle;fontSize=14;fontStyle=0;fillColor=#FFFFFF;flipH=0;spacingRight=0;spacingLeft=14;shadow=0;" parent="WIyWlLk6GJQsqaUBKTNV-1" vertex="1">
          <mxGeometry x="30" y="50" width="90" height="40" as="geometry" />
        </mxCell>
        <mxCell id="UK7usxM2ex3z4qg5tMJh-1" value="[is equipped]&amp;nbsp;" style="text;html=1;strokeColor=none;fillColor=none;align=center;verticalAlign=middle;whiteSpace=wrap;rounded=0;" parent="WIyWlLk6GJQsqaUBKTNV-1" vertex="1">
          <mxGeometry x="250" y="45" width="90" height="30" as="geometry" />
        </mxCell>
        <mxCell id="UK7usxM2ex3z4qg5tMJh-18" value="" style="edgeStyle=orthogonalEdgeStyle;rounded=0;orthogonalLoop=1;jettySize=auto;html=1;" parent="WIyWlLk6GJQsqaUBKTNV-1" source="UK7usxM2ex3z4qg5tMJh-2" edge="1">
          <mxGeometry relative="1" as="geometry">
            <mxPoint x="205" y="300" as="targetPoint" />
          </mxGeometry>
        </mxCell>
        <mxCell id="UK7usxM2ex3z4qg5tMJh-2" value="Print: Not equipped weapon" style="rounded=1;whiteSpace=wrap;html=1;fontSize=12;glass=0;strokeWidth=1;shadow=0;" parent="WIyWlLk6GJQsqaUBKTNV-1" vertex="1">
          <mxGeometry x="145" y="160" width="120" height="40" as="geometry" />
        </mxCell>
        <mxCell id="UK7usxM2ex3z4qg5tMJh-4" value="[else]" style="text;html=1;strokeColor=none;fillColor=none;align=center;verticalAlign=middle;whiteSpace=wrap;rounded=0;" parent="WIyWlLk6GJQsqaUBKTNV-1" vertex="1">
          <mxGeometry x="160" y="110" width="40" height="30" as="geometry" />
        </mxCell>
        <mxCell id="UK7usxM2ex3z4qg5tMJh-13" value="" style="edgeStyle=orthogonalEdgeStyle;rounded=0;orthogonalLoop=1;jettySize=auto;html=1;entryX=0;entryY=0.5;entryDx=0;entryDy=0;" parent="WIyWlLk6GJQsqaUBKTNV-1" source="UK7usxM2ex3z4qg5tMJh-8" target="UK7usxM2ex3z4qg5tMJh-11" edge="1">
          <mxGeometry relative="1" as="geometry">
            <mxPoint x="540" y="70" as="targetPoint" />
          </mxGeometry>
        </mxCell>
        <mxCell id="UK7usxM2ex3z4qg5tMJh-15" value="" style="edgeStyle=orthogonalEdgeStyle;rounded=0;orthogonalLoop=1;jettySize=auto;html=1;" parent="WIyWlLk6GJQsqaUBKTNV-1" source="UK7usxM2ex3z4qg5tMJh-8" target="UK7usxM2ex3z4qg5tMJh-14" edge="1">
          <mxGeometry relative="1" as="geometry" />
        </mxCell>
        <mxCell id="UK7usxM2ex3z4qg5tMJh-8" value="" style="rhombus;whiteSpace=wrap;html=1;shadow=0;fontFamily=Helvetica;fontSize=12;align=center;strokeWidth=1;spacing=6;spacingTop=-4;" parent="WIyWlLk6GJQsqaUBKTNV-1" vertex="1">
          <mxGeometry x="350" y="40" width="70" height="60" as="geometry" />
        </mxCell>
        <mxCell id="UK7usxM2ex3z4qg5tMJh-9" value="[hitAttempts &amp;gt; 0]" style="text;html=1;strokeColor=none;fillColor=none;align=center;verticalAlign=middle;whiteSpace=wrap;rounded=0;" parent="WIyWlLk6GJQsqaUBKTNV-1" vertex="1">
          <mxGeometry x="420" y="40" width="100" height="30" as="geometry" />
        </mxCell>
        <mxCell id="UK7usxM2ex3z4qg5tMJh-24" value="" style="edgeStyle=orthogonalEdgeStyle;rounded=0;orthogonalLoop=1;jettySize=auto;html=1;" parent="WIyWlLk6GJQsqaUBKTNV-1" source="UK7usxM2ex3z4qg5tMJh-11" target="UK7usxM2ex3z4qg5tMJh-23" edge="1">
          <mxGeometry relative="1" as="geometry" />
        </mxCell>
        <mxCell id="UK7usxM2ex3z4qg5tMJh-29" value="" style="edgeStyle=orthogonalEdgeStyle;rounded=0;orthogonalLoop=1;jettySize=auto;html=1;" parent="WIyWlLk6GJQsqaUBKTNV-1" source="UK7usxM2ex3z4qg5tMJh-11" target="UK7usxM2ex3z4qg5tMJh-28" edge="1">
          <mxGeometry relative="1" as="geometry" />
        </mxCell>
        <mxCell id="UK7usxM2ex3z4qg5tMJh-11" value="" style="rhombus;whiteSpace=wrap;html=1;shadow=0;fontFamily=Helvetica;fontSize=12;align=center;strokeWidth=1;spacing=6;spacingTop=-4;" parent="WIyWlLk6GJQsqaUBKTNV-1" vertex="1">
          <mxGeometry x="520" y="40" width="70" height="60" as="geometry" />
        </mxCell>
        <mxCell id="UK7usxM2ex3z4qg5tMJh-22" value="" style="edgeStyle=orthogonalEdgeStyle;rounded=0;orthogonalLoop=1;jettySize=auto;html=1;" parent="WIyWlLk6GJQsqaUBKTNV-1" source="UK7usxM2ex3z4qg5tMJh-14" target="UK7usxM2ex3z4qg5tMJh-20" edge="1">
          <mxGeometry relative="1" as="geometry" />
        </mxCell>
        <mxCell id="UK7usxM2ex3z4qg5tMJh-14" value="Print: No ammo left" style="rounded=1;whiteSpace=wrap;html=1;fontSize=12;glass=0;strokeWidth=1;shadow=0;" parent="WIyWlLk6GJQsqaUBKTNV-1" vertex="1">
          <mxGeometry x="325" y="160" width="120" height="40" as="geometry" />
        </mxCell>
        <mxCell id="UK7usxM2ex3z4qg5tMJh-16" value="[else]" style="text;html=1;strokeColor=none;fillColor=none;align=center;verticalAlign=middle;whiteSpace=wrap;rounded=0;" parent="WIyWlLk6GJQsqaUBKTNV-1" vertex="1">
          <mxGeometry x="340" y="110" width="40" height="30" as="geometry" />
        </mxCell>
        <mxCell id="UK7usxM2ex3z4qg5tMJh-19" value="" style="ellipse;html=1;shape=endState;fillColor=#000000;strokeColor=#000000;dashed=1;" parent="WIyWlLk6GJQsqaUBKTNV-1" vertex="1">
          <mxGeometry x="190" y="300" width="30" height="30" as="geometry" />
        </mxCell>
        <mxCell id="UK7usxM2ex3z4qg5tMJh-20" value="" style="ellipse;html=1;shape=endState;fillColor=#000000;strokeColor=#000000;dashed=1;" parent="WIyWlLk6GJQsqaUBKTNV-1" vertex="1">
          <mxGeometry x="370" y="300" width="30" height="30" as="geometry" />
        </mxCell>
        <mxCell id="UK7usxM2ex3z4qg5tMJh-37" value="" style="edgeStyle=orthogonalEdgeStyle;rounded=0;orthogonalLoop=1;jettySize=auto;html=1;" parent="WIyWlLk6GJQsqaUBKTNV-1" source="UK7usxM2ex3z4qg5tMJh-23" target="UK7usxM2ex3z4qg5tMJh-34" edge="1">
          <mxGeometry relative="1" as="geometry" />
        </mxCell>
        <mxCell id="UK7usxM2ex3z4qg5tMJh-23" value="enemy looses HP&lt;br&gt;(weapon damage)" style="rounded=1;whiteSpace=wrap;html=1;fontSize=12;glass=0;strokeWidth=1;shadow=0;" parent="WIyWlLk6GJQsqaUBKTNV-1" vertex="1">
          <mxGeometry x="680" y="50" width="120" height="40" as="geometry" />
        </mxCell>
        <mxCell id="UK7usxM2ex3z4qg5tMJh-25" value="[enemy in room]" style="text;html=1;strokeColor=none;fillColor=none;align=center;verticalAlign=middle;whiteSpace=wrap;rounded=0;" parent="WIyWlLk6GJQsqaUBKTNV-1" vertex="1">
          <mxGeometry x="580" y="40" width="100" height="30" as="geometry" />
        </mxCell>
        <mxCell id="UK7usxM2ex3z4qg5tMJh-27" value="[else]" style="text;html=1;strokeColor=none;fillColor=none;align=center;verticalAlign=middle;whiteSpace=wrap;rounded=0;" parent="WIyWlLk6GJQsqaUBKTNV-1" vertex="1">
          <mxGeometry x="510" y="110" width="40" height="30" as="geometry" />
        </mxCell>
        <mxCell id="UK7usxM2ex3z4qg5tMJh-31" value="" style="edgeStyle=orthogonalEdgeStyle;rounded=0;orthogonalLoop=1;jettySize=auto;html=1;" parent="WIyWlLk6GJQsqaUBKTNV-1" source="UK7usxM2ex3z4qg5tMJh-28" target="UK7usxM2ex3z4qg5tMJh-30" edge="1">
          <mxGeometry relative="1" as="geometry" />
        </mxCell>
        <mxCell id="UK7usxM2ex3z4qg5tMJh-28" value="Print: You attacked the air" style="rounded=1;whiteSpace=wrap;html=1;fontSize=12;glass=0;strokeWidth=1;shadow=0;" parent="WIyWlLk6GJQsqaUBKTNV-1" vertex="1">
          <mxGeometry x="495" y="160" width="120" height="40" as="geometry" />
        </mxCell>
        <mxCell id="UK7usxM2ex3z4qg5tMJh-33" value="" style="edgeStyle=orthogonalEdgeStyle;rounded=0;orthogonalLoop=1;jettySize=auto;html=1;" parent="WIyWlLk6GJQsqaUBKTNV-1" source="UK7usxM2ex3z4qg5tMJh-30" target="UK7usxM2ex3z4qg5tMJh-32" edge="1">
          <mxGeometry relative="1" as="geometry" />
        </mxCell>
        <mxCell id="UK7usxM2ex3z4qg5tMJh-30" value="Update setHitAttempts" style="rounded=1;whiteSpace=wrap;html=1;fontSize=12;glass=0;strokeWidth=1;shadow=0;" parent="WIyWlLk6GJQsqaUBKTNV-1" vertex="1">
          <mxGeometry x="495" y="230" width="120" height="40" as="geometry" />
        </mxCell>
        <mxCell id="UK7usxM2ex3z4qg5tMJh-32" value="" style="ellipse;html=1;shape=endState;fillColor=#000000;strokeColor=#000000;dashed=1;" parent="WIyWlLk6GJQsqaUBKTNV-1" vertex="1">
          <mxGeometry x="540" y="300" width="30" height="30" as="geometry" />
        </mxCell>
        <mxCell id="UK7usxM2ex3z4qg5tMJh-41" value="" style="edgeStyle=orthogonalEdgeStyle;rounded=0;orthogonalLoop=1;jettySize=auto;html=1;" parent="WIyWlLk6GJQsqaUBKTNV-1" source="UK7usxM2ex3z4qg5tMJh-34" target="UK7usxM2ex3z4qg5tMJh-40" edge="1">
          <mxGeometry relative="1" as="geometry" />
        </mxCell>
        <mxCell id="UK7usxM2ex3z4qg5tMJh-43" value="" style="edgeStyle=orthogonalEdgeStyle;rounded=0;orthogonalLoop=1;jettySize=auto;html=1;" parent="WIyWlLk6GJQsqaUBKTNV-1" source="UK7usxM2ex3z4qg5tMJh-34" target="UK7usxM2ex3z4qg5tMJh-42" edge="1">
          <mxGeometry relative="1" as="geometry" />
        </mxCell>
        <mxCell id="UK7usxM2ex3z4qg5tMJh-34" value="" style="rhombus;whiteSpace=wrap;html=1;shadow=0;fontFamily=Helvetica;fontSize=12;align=center;strokeWidth=1;spacing=6;spacingTop=-4;" parent="WIyWlLk6GJQsqaUBKTNV-1" vertex="1">
          <mxGeometry x="705" y="380" width="70" height="60" as="geometry" />
        </mxCell>
        <mxCell id="UK7usxM2ex3z4qg5tMJh-47" value="" style="edgeStyle=orthogonalEdgeStyle;rounded=0;orthogonalLoop=1;jettySize=auto;html=1;" parent="WIyWlLk6GJQsqaUBKTNV-1" source="UK7usxM2ex3z4qg5tMJh-40" target="UK7usxM2ex3z4qg5tMJh-46" edge="1">
          <mxGeometry relative="1" as="geometry" />
        </mxCell>
        <mxCell id="UK7usxM2ex3z4qg5tMJh-40" value="enemy&#39;s weapon:&lt;br&gt;Drop item in room" style="rounded=1;whiteSpace=wrap;html=1;fontSize=12;glass=0;strokeWidth=1;shadow=0;" parent="WIyWlLk6GJQsqaUBKTNV-1" vertex="1">
          <mxGeometry x="680" y="500" width="120" height="40" as="geometry" />
        </mxCell>
        <mxCell id="UK7usxM2ex3z4qg5tMJh-52" value="" style="edgeStyle=orthogonalEdgeStyle;rounded=0;orthogonalLoop=1;jettySize=auto;html=1;startArrow=none;" parent="WIyWlLk6GJQsqaUBKTNV-1" source="KBF3oVBtgUm7NCO85rsH-5" target="UK7usxM2ex3z4qg5tMJh-50" edge="1">
          <mxGeometry relative="1" as="geometry" />
        </mxCell>
        <mxCell id="UK7usxM2ex3z4qg5tMJh-42" value="player looses HP&lt;br&gt;(enemy´s weapon damage)" style="rounded=1;whiteSpace=wrap;html=1;fontSize=12;glass=0;strokeWidth=1;shadow=0;" parent="WIyWlLk6GJQsqaUBKTNV-1" vertex="1">
          <mxGeometry x="495" y="385" width="120" height="50" as="geometry" />
        </mxCell>
        <mxCell id="UK7usxM2ex3z4qg5tMJh-44" value="[enemy alive]" style="text;html=1;strokeColor=none;fillColor=none;align=center;verticalAlign=middle;whiteSpace=wrap;rounded=0;" parent="WIyWlLk6GJQsqaUBKTNV-1" vertex="1">
          <mxGeometry x="615" y="380" width="100" height="30" as="geometry" />
        </mxCell>
        <mxCell id="UK7usxM2ex3z4qg5tMJh-45" value="[else]" style="text;html=1;strokeColor=none;fillColor=none;align=center;verticalAlign=middle;whiteSpace=wrap;rounded=0;" parent="WIyWlLk6GJQsqaUBKTNV-1" vertex="1">
          <mxGeometry x="700" y="450" width="40" height="30" as="geometry" />
        </mxCell>
        <mxCell id="UK7usxM2ex3z4qg5tMJh-49" value="" style="edgeStyle=orthogonalEdgeStyle;rounded=0;orthogonalLoop=1;jettySize=auto;html=1;" parent="WIyWlLk6GJQsqaUBKTNV-1" source="UK7usxM2ex3z4qg5tMJh-46" target="UK7usxM2ex3z4qg5tMJh-48" edge="1">
          <mxGeometry relative="1" as="geometry" />
        </mxCell>
        <mxCell id="UK7usxM2ex3z4qg5tMJh-46" value="Remove enemy from the room" style="rounded=1;whiteSpace=wrap;html=1;fontSize=12;glass=0;strokeWidth=1;shadow=0;" parent="WIyWlLk6GJQsqaUBKTNV-1" vertex="1">
          <mxGeometry x="680" y="584.5" width="120" height="40" as="geometry" />
        </mxCell>
        <mxCell id="UK7usxM2ex3z4qg5tMJh-48" value="" style="ellipse;html=1;shape=endState;fillColor=#000000;strokeColor=#000000;dashed=1;" parent="WIyWlLk6GJQsqaUBKTNV-1" vertex="1">
          <mxGeometry x="725" y="660" width="30" height="30" as="geometry" />
        </mxCell>
        <mxCell id="UK7usxM2ex3z4qg5tMJh-57" value="" style="edgeStyle=orthogonalEdgeStyle;rounded=0;orthogonalLoop=1;jettySize=auto;html=1;" parent="WIyWlLk6GJQsqaUBKTNV-1" source="UK7usxM2ex3z4qg5tMJh-50" target="UK7usxM2ex3z4qg5tMJh-56" edge="1">
          <mxGeometry relative="1" as="geometry" />
        </mxCell>
        <mxCell id="KBF3oVBtgUm7NCO85rsH-4" value="" style="edgeStyle=orthogonalEdgeStyle;rounded=0;orthogonalLoop=1;jettySize=auto;html=1;" edge="1" parent="WIyWlLk6GJQsqaUBKTNV-1" source="UK7usxM2ex3z4qg5tMJh-50" target="UK7usxM2ex3z4qg5tMJh-53">
          <mxGeometry relative="1" as="geometry">
            <Array as="points">
              <mxPoint x="215" y="520" />
            </Array>
          </mxGeometry>
        </mxCell>
        <mxCell id="UK7usxM2ex3z4qg5tMJh-50" value="" style="rhombus;whiteSpace=wrap;html=1;shadow=0;fontFamily=Helvetica;fontSize=12;align=center;strokeWidth=1;spacing=6;spacingTop=-4;" parent="WIyWlLk6GJQsqaUBKTNV-1" vertex="1">
          <mxGeometry x="180" y="380" width="70" height="60" as="geometry" />
        </mxCell>
        <mxCell id="UK7usxM2ex3z4qg5tMJh-60" value="" style="edgeStyle=orthogonalEdgeStyle;rounded=0;orthogonalLoop=1;jettySize=auto;html=1;" parent="WIyWlLk6GJQsqaUBKTNV-1" source="UK7usxM2ex3z4qg5tMJh-53" target="UK7usxM2ex3z4qg5tMJh-59" edge="1">
          <mxGeometry relative="1" as="geometry">
            <Array as="points">
              <mxPoint x="215" y="625" />
            </Array>
          </mxGeometry>
        </mxCell>
        <mxCell id="UK7usxM2ex3z4qg5tMJh-53" value="Print: Play again?" style="rounded=1;whiteSpace=wrap;html=1;shadow=0;strokeWidth=1;spacing=6;spacingTop=-4;" parent="WIyWlLk6GJQsqaUBKTNV-1" vertex="1">
          <mxGeometry x="155" y="520" width="120" height="40" as="geometry" />
        </mxCell>
        <mxCell id="UK7usxM2ex3z4qg5tMJh-55" value="[player alive]" style="text;html=1;strokeColor=none;fillColor=none;align=center;verticalAlign=middle;whiteSpace=wrap;rounded=0;" parent="WIyWlLk6GJQsqaUBKTNV-1" vertex="1">
          <mxGeometry x="80" y="380" width="100" height="30" as="geometry" />
        </mxCell>
        <mxCell id="UK7usxM2ex3z4qg5tMJh-56" value="" style="ellipse;html=1;shape=endState;fillColor=#000000;strokeColor=#000000;dashed=1;" parent="WIyWlLk6GJQsqaUBKTNV-1" vertex="1">
          <mxGeometry x="50" y="395" width="30" height="30" as="geometry" />
        </mxCell>
        <mxCell id="UK7usxM2ex3z4qg5tMJh-58" value="[else]" style="text;html=1;strokeColor=none;fillColor=none;align=center;verticalAlign=middle;whiteSpace=wrap;rounded=0;" parent="WIyWlLk6GJQsqaUBKTNV-1" vertex="1">
          <mxGeometry x="220" y="450" width="40" height="30" as="geometry" />
        </mxCell>
        <mxCell id="UK7usxM2ex3z4qg5tMJh-59" value="" style="ellipse;html=1;shape=endState;fillColor=#000000;strokeColor=#000000;dashed=1;" parent="WIyWlLk6GJQsqaUBKTNV-1" vertex="1">
          <mxGeometry x="200" y="610" width="30" height="30" as="geometry" />
        </mxCell>
        <mxCell id="KBF3oVBtgUm7NCO85rsH-0" value="Update player&#39;s setHitAttempts" style="rounded=1;whiteSpace=wrap;html=1;fontSize=12;glass=0;strokeWidth=1;shadow=0;" vertex="1" parent="WIyWlLk6GJQsqaUBKTNV-1">
          <mxGeometry x="680" y="160" width="120" height="40" as="geometry" />
        </mxCell>
        <mxCell id="KBF3oVBtgUm7NCO85rsH-5" value="Update player&#39;s setHitAttempts" style="rounded=1;whiteSpace=wrap;html=1;fontSize=12;glass=0;strokeWidth=1;shadow=0;" vertex="1" parent="WIyWlLk6GJQsqaUBKTNV-1">
          <mxGeometry x="310" y="385" width="120" height="50" as="geometry" />
        </mxCell>
        <mxCell id="KBF3oVBtgUm7NCO85rsH-6" value="" style="edgeStyle=orthogonalEdgeStyle;rounded=0;orthogonalLoop=1;jettySize=auto;html=1;endArrow=none;" edge="1" parent="WIyWlLk6GJQsqaUBKTNV-1" source="UK7usxM2ex3z4qg5tMJh-42" target="KBF3oVBtgUm7NCO85rsH-5">
          <mxGeometry relative="1" as="geometry">
            <mxPoint x="495" y="409.9999999999999" as="sourcePoint" />
            <mxPoint x="364" y="409.9999999999999" as="targetPoint" />
          </mxGeometry>
        </mxCell>
      </root>
    </mxGraphModel>
  </diagram>
</mxfile>
